<svg id="Group_103" data-name="Group 103" xmlns="http://www.w3.org/2000/svg" xmlns:xlink="http://www.w3.org/1999/xlink" width="235.438" height="54.55" viewBox="0 0 235.438 54.55">
  <defs>
    <clipPath id="clip-path">
      <rect id="Rectangle_51" data-name="Rectangle 51" width="235.438" height="54.55" fill="none"/>
    </clipPath>
  </defs>
  <path id="Path_141" data-name="Path 141" d="M321.486,121.232v6.189l-4.808-6.189h-.807v7.722h.839v-6.332l4.927,6.332h.687v-7.722Z" transform="translate(-194.15 -74.515)" fill="#414042"/>
  <path id="Path_142" data-name="Path 142" d="M354.236,121.232v3.431h-4.4v-3.431h-.862v7.722h.862V125.48h4.4v3.475h.862v-7.722Z" transform="translate(-214.494 -74.515)" fill="#414042"/>
  <rect id="Rectangle_48" data-name="Rectangle 48" width="3.03" height="0.893" transform="translate(146.534 50.678)" fill="#414042"/>
  <g id="Group_102" data-name="Group 102">
    <g id="Group_101" data-name="Group 101" clip-path="url(#clip-path)">
      <path id="Path_143" data-name="Path 143" d="M407.689,127.587a2.078,2.078,0,0,1-.6.7,2.968,2.968,0,0,1-.909.447,4.084,4.084,0,0,1-2.264,0,2.969,2.969,0,0,1-.908-.447,2.076,2.076,0,0,1-.6-.7,1.871,1.871,0,0,1-.218-.894,1.673,1.673,0,0,1,.441-1.175,2.837,2.837,0,0,1,1.126-.734,3.116,3.116,0,0,1-.5-.292,2.206,2.206,0,0,1-.419-.386,1.685,1.685,0,0,1-.283-.491,1.755,1.755,0,0,1-.1-.618,1.643,1.643,0,0,1,.213-.827,2.183,2.183,0,0,1,.566-.651,2.609,2.609,0,0,1,.829-.425,3.409,3.409,0,0,1,1.995,0,2.613,2.613,0,0,1,.829.425,2.189,2.189,0,0,1,.566.651,1.643,1.643,0,0,1,.213.827,1.737,1.737,0,0,1-.1.618,1.673,1.673,0,0,1-.286.491,2.212,2.212,0,0,1-.422.386,3.152,3.152,0,0,1-.5.292,2.869,2.869,0,0,1,1.126.728,1.653,1.653,0,0,1,.441,1.169,1.89,1.89,0,0,1-.218.9m-.8-1.52a1.5,1.5,0,0,0-.426-.462,2.121,2.121,0,0,0-.634-.3,2.835,2.835,0,0,0-1.563,0,2.2,2.2,0,0,0-.64.3,1.434,1.434,0,0,0-.426.462,1.19,1.19,0,0,0-.153.6,1.2,1.2,0,0,0,.137.561,1.381,1.381,0,0,0,.393.462,2,2,0,0,0,.628.313,3.131,3.131,0,0,0,1.683,0,1.99,1.99,0,0,0,.629-.313,1.387,1.387,0,0,0,.394-.462,1.207,1.207,0,0,0,.136-.561,1.156,1.156,0,0,0-.159-.6m-.223-3.541a1.325,1.325,0,0,0-.365-.429,1.73,1.73,0,0,0-.556-.28,2.468,2.468,0,0,0-1.384,0,1.729,1.729,0,0,0-.556.28,1.342,1.342,0,0,0-.365.423,1.11,1.11,0,0,0-.131.538,1.215,1.215,0,0,0,.136.577,1.4,1.4,0,0,0,.371.445,1.756,1.756,0,0,0,.556.291,2.275,2.275,0,0,0,1.363,0,1.758,1.758,0,0,0,.556-.291,1.392,1.392,0,0,0,.371-.445,1.21,1.21,0,0,0,.136-.577,1.12,1.12,0,0,0-.131-.533" transform="translate(-247.201 -74.339)" fill="#414042"/>
      <path id="Path_144" data-name="Path 144" d="M54.94,10.916h0a2.334,2.334,0,0,1-2.334,2.334H27.425a25.52,25.52,0,0,1,12.16-4.667H52.606a2.334,2.334,0,0,1,2.334,2.334" transform="translate(-16.857 -5.275)" fill="#c12417"/>
      <path id="Path_145" data-name="Path 145" d="M12.845,28.645H26.689a2.336,2.336,0,0,1,0,4.672H9.294a25.587,25.587,0,0,1,3.551-4.672" transform="translate(-5.713 -17.607)" fill="#ddae1b"/>
      <path id="Path_146" data-name="Path 146" d="M2.919,48.723H27.785a2.336,2.336,0,0,1,0,4.672H1.45a25.177,25.177,0,0,1,1.469-4.672" transform="translate(-0.891 -29.947)" fill="#1a9133"/>
      <path id="Path_147" data-name="Path 147" d="M27.895,129.011H54.926a2.336,2.336,0,0,1,0,4.672H41.693a25.483,25.483,0,0,1-13.8-4.672" transform="translate(-17.146 -79.296)" fill="#2d429b"/>
      <path id="Path_148" data-name="Path 148" d="M9.492,108.941H37.4a2.336,2.336,0,1,1,0,4.672H13.1a25.525,25.525,0,0,1-3.6-4.672" transform="translate(-5.834 -66.96)" fill="#1466af"/>
      <path id="Path_149" data-name="Path 149" d="M1.521,88.863h24.53a2.336,2.336,0,1,1,0,4.672H3.02a24.991,24.991,0,0,1-1.5-4.672" transform="translate(-0.935 -54.619)" fill="#33b5d3"/>
      <path id="Path_150" data-name="Path 150" d="M.1,68.793H35.535a2.336,2.336,0,0,1,0,4.672H.113Q0,72.279,0,71.065q0-1.15.1-2.272" transform="translate(0 -42.283)" fill="#0a591d"/>
      <path id="Path_151" data-name="Path 151" d="M111.266,10.911h0a2.336,2.336,0,0,1-2.336,2.336h0a2.336,2.336,0,0,1,0-4.672h0a2.336,2.336,0,0,1,2.336,2.336" transform="translate(-65.518 -5.271)" fill="#c12417"/>
      <path id="Path_152" data-name="Path 152" d="M71.852,30.981v0a2.336,2.336,0,0,1-2.336,2.336h0a2.336,2.336,0,0,1-2.336-2.336v0a2.336,2.336,0,0,1,2.336-2.336h0a2.336,2.336,0,0,1,2.336,2.336" transform="translate(-41.292 -17.607)" fill="#ddae1b"/>
      <path id="Path_153" data-name="Path 153" d="M87.21,51.059h0a2.336,2.336,0,0,1-2.336,2.336h0a2.336,2.336,0,0,1,0-4.672h0a2.336,2.336,0,0,1,2.336,2.336" transform="translate(-50.73 -29.947)" fill="#1a9133"/>
      <path id="Path_154" data-name="Path 154" d="M109.623,71.137h0a2.336,2.336,0,0,1-2.336,2.336h0a2.336,2.336,0,0,1,0-4.672h0a2.336,2.336,0,0,1,2.336,2.336" transform="translate(-64.508 -42.288)" fill="#0a591d"/>
      <path id="Path_155" data-name="Path 155" d="M82.6,91.207h0a2.336,2.336,0,1,1-2.336-2.336A2.336,2.336,0,0,1,82.6,91.207" transform="translate(-47.896 -54.624)" fill="#33b5d3"/>
      <path id="Path_156" data-name="Path 156" d="M99.33,111.285h0a2.336,2.336,0,0,1-2.336,2.336h0a2.336,2.336,0,0,1,0-4.672h0a2.336,2.336,0,0,1,2.336,2.336" transform="translate(-58.181 -66.965)" fill="#1466af"/>
      <path id="Path_157" data-name="Path 157" d="M115.684,131.355h0a2.336,2.336,0,0,1-2.336,2.336h0a2.336,2.336,0,0,1,0-4.672h0a2.336,2.336,0,0,1,2.336,2.336" transform="translate(-68.233 -79.301)" fill="#2d429b"/>
      <path id="Path_158" data-name="Path 158" d="M135.454,72.958c0-5.841,2.757-9.074,6.968-9.074a5.506,5.506,0,0,1,4.763,2.607l-.752,1.1h-.276a4.016,4.016,0,0,0-3.71-2.281c-2.506,0-3.71,1.529-3.71,5.164V75.59c0,3.309.953,5.013,3.735,5.013a4.39,4.39,0,0,0,3.785-2.005h.25l.677.827a5.505,5.505,0,0,1-4.763,2.607c-4.211,0-6.968-3.284-6.968-9.074" transform="translate(-83.256 -39.266)" fill="#414042"/>
      <rect id="Rectangle_49" data-name="Rectangle 49" width="2.908" height="17.547" transform="translate(65.907 24.918)" fill="#414042"/>
      <path id="Path_159" data-name="Path 159" d="M191.189,66.093V82.211h-2.882V66.093h-4.788l.451-1.429H195.5l.476,1.429Z" transform="translate(-112.799 -39.746)" fill="#414042"/>
      <path id="Path_160" data-name="Path 160" d="M224.833,74.19v8.021H221.95V74.165l-5.39-9.5h3.259l4.387,7.621,4.386-7.621h1.654Z" transform="translate(-133.108 -39.746)" fill="#414042"/>
      <path id="Path_161" data-name="Path 161" d="M268.659,72.958c0-5.841,2.908-9.075,6.743-9.075s6.743,3.234,6.743,9.075c0,5.79-2.907,9.074-6.743,9.074s-6.743-3.284-6.743-9.074m10.2,2.757v-5.54c0-3.66-1.329-4.863-3.459-4.863s-3.459,1.2-3.459,4.863V75.74c0,3.66,1.329,4.864,3.459,4.864s3.459-1.2,3.459-4.888" transform="translate(-165.131 -39.266)" fill="#414042"/>
      <path id="Path_162" data-name="Path 162" d="M312.934,72.335H318.3v1.429h-5.364v8.447h-2.908V64.665h9.626l.476,1.429h-7.194Z" transform="translate(-190.557 -39.746)" fill="#414042"/>
      <path id="Path_163" data-name="Path 163" d="M352.953,72.958c0-5.841,2.757-9.074,6.969-9.074a5.507,5.507,0,0,1,4.763,2.607l-.752,1.1h-.276a4.017,4.017,0,0,0-3.71-2.281c-2.506,0-3.71,1.529-3.71,5.164V75.59c0,3.309.953,5.013,3.735,5.013a4.39,4.39,0,0,0,3.785-2.005h.251l.677.827a5.506,5.506,0,0,1-4.763,2.607c-4.211,0-6.969-3.284-6.969-9.074" transform="translate(-216.942 -39.266)" fill="#414042"/>
      <path id="Path_164" data-name="Path 164" d="M385.344,72.958c0-5.841,2.908-9.075,6.743-9.075s6.743,3.234,6.743,9.075c0,5.79-2.907,9.074-6.743,9.074s-6.743-3.284-6.743-9.074m10.2,2.757v-5.54c0-3.66-1.328-4.863-3.459-4.863s-3.459,1.2-3.459,4.863V75.74c0,3.66,1.328,4.864,3.459,4.864s3.459-1.2,3.459-4.888" transform="translate(-236.851 -39.266)" fill="#414042"/>
      <path id="Path_165" data-name="Path 165" d="M436.814,80.782l-.476,1.429h-9.626V64.665h2.908V80.782Z" transform="translate(-262.278 -39.746)" fill="#414042"/>
      <path id="Path_166" data-name="Path 166" d="M452.144,72.958c0-5.841,2.908-9.075,6.743-9.075s6.743,3.234,6.743,9.075c0,5.79-2.907,9.074-6.743,9.074s-6.743-3.284-6.743-9.074m10.2,2.757v-5.54c0-3.66-1.328-4.863-3.459-4.863s-3.459,1.2-3.459,4.863V75.74c0,3.66,1.329,4.864,3.459,4.864s3.459-1.2,3.459-4.888" transform="translate(-277.909 -39.266)" fill="#414042"/>
      <path id="Path_167" data-name="Path 167" d="M504.566,77.2c0,3.234-1.6,5.314-5.239,5.314-3.885,0-5.815-2.156-5.815-5.339V64.665h2.907V77.323c0,2.757,1.379,3.76,3.309,3.76,1.955,0,3.334-1,3.334-3.76V64.665h1.5Z" transform="translate(-303.336 -39.746)" fill="#414042"/>
      <path id="Path_168" data-name="Path 168" d="M540.6,82.212l-3.534-7.645h-2.983v7.645h-2.907V64.665h6.191c3.109,0,5.64,1.128,5.64,4.913,0,2.682-1.278,4.086-3.133,4.662l3.835,7.971Zm-6.517-9.074h3.284c1.479,0,2.432-.8,2.432-3.133v-.877c0-2.332-.953-3.033-2.432-3.033h-3.284Z" transform="translate(-326.484 -39.746)" fill="#414042"/>
      <path id="Path_169" data-name="Path 169" d="M566.294,79.65l.8-1.128h.25a5.57,5.57,0,0,0,4.336,2.081c2.156,0,3.46-1.078,3.46-2.908,0-4.337-8.122-3.409-8.122-9.024,0-2.808,2.206-4.788,5.564-4.788a5.941,5.941,0,0,1,4.487,1.73l-.752,1.153h-.276a4.424,4.424,0,0,0-3.434-1.454c-1.88,0-2.958.852-2.958,2.381,0,3.81,8.146,3.084,8.146,9.174,0,3.108-2.406,5.164-6.041,5.164a7.1,7.1,0,0,1-5.465-2.381" transform="translate(-348.071 -39.266)" fill="#414042"/>
      <rect id="Rectangle_50" data-name="Rectangle 50" width="177.514" height="0.399" transform="translate(52.193 18.848)" fill="#414042"/>
      <path id="Path_170" data-name="Path 170" d="M135.395,18.394l.022-3.091.172.007a6.7,6.7,0,0,0,.748,1.859,2.4,2.4,0,0,0,2.051,1.255,1.9,1.9,0,0,0,1.422-.576,2.005,2.005,0,0,0,.561-1.46,2.619,2.619,0,0,0-.123-.778,2.289,2.289,0,0,0-.333-.681,2.539,2.539,0,0,0-.61-.561,11.386,11.386,0,0,0-1.2-.681,11.907,11.907,0,0,1-1.089-.607,3.143,3.143,0,0,1-.61-.5,2.446,2.446,0,0,1-.644-1.714,2.964,2.964,0,0,1,.251-1.2,2.886,2.886,0,0,1,.7-.988,2.676,2.676,0,0,1,1.879-.734,2.818,2.818,0,0,1,.651.071,5.569,5.569,0,0,1,.8.281q.374.15.509.191a.832.832,0,0,0,.24.041q.262,0,.352-.381h.172l.052,2.971H141.2q-.2-.711-.348-1.089a4.07,4.07,0,0,0-.348-.7,2.693,2.693,0,0,0-.807-.865,1.852,1.852,0,0,0-1.016-.281,1.647,1.647,0,0,0-1.323.57,1.742,1.742,0,0,0-.318.547,1.807,1.807,0,0,0-.116.629q0,1.251,1.607,2.016l1.054.509a4.744,4.744,0,0,1,1.756,1.274,2.85,2.85,0,0,1,.613,1.813,3.22,3.22,0,0,1-.277,1.314,2.931,2.931,0,0,1-1.168,1.348,3.458,3.458,0,0,1-1.834.474,4.668,4.668,0,0,1-1.857-.382q-.464-.2-.554-.232a.645.645,0,0,0-.2-.03.494.494,0,0,0-.494.36Z" transform="translate(-83.22 -4.883)" fill="#414042"/>
      <path id="Path_171" data-name="Path 171" d="M163.615,8.624V8.8a2.435,2.435,0,0,0-.692.12,1.25,1.25,0,0,0-.475.314,1.4,1.4,0,0,0-.36.83,8.188,8.188,0,0,0-.045.914v5.517a6.249,6.249,0,0,0,.06.98,1.6,1.6,0,0,0,.195.576,1.21,1.21,0,0,0,.5.445,2.229,2.229,0,0,0,.816.176v.172h-4.783v-.172a2.37,2.37,0,0,0,.7-.123,1.274,1.274,0,0,0,.468-.311,1.21,1.21,0,0,0,.322-.606,5.694,5.694,0,0,0,.082-1.138V10.975a5.7,5.7,0,0,0-.082-1.138A1.21,1.21,0,0,0,160,9.231a1.188,1.188,0,0,0-.472-.314,2.477,2.477,0,0,0-.7-.12V8.624Z" transform="translate(-97.626 -5.301)" fill="#414042"/>
      <path id="Path_172" data-name="Path 172" d="M186.9,8.206l.09,3.256-.172.015A5.989,5.989,0,0,0,185.493,9a2.656,2.656,0,0,0-1.954-.812,3.054,3.054,0,0,0-1.531.363,3.707,3.707,0,0,0-1.194,1.179,6.679,6.679,0,0,0-1.123,3.817,6.783,6.783,0,0,0,.269,1.935,5.093,5.093,0,0,0,.786,1.605,2.97,2.97,0,0,0,2.448,1.348,2.448,2.448,0,0,0,1.07-.24,2.168,2.168,0,0,0,1.265-2.044,1.308,1.308,0,0,0-.4-1.07,2.088,2.088,0,0,0-1.321-.329v-.172h4.775v.172a3.092,3.092,0,0,0-.924.183.778.778,0,0,0-.393.423,3.9,3.9,0,0,0-.142,1.31q0,.27.03.839l.015.172a1.385,1.385,0,0,0-.419-.1.815.815,0,0,0-.419.172,5.013,5.013,0,0,1-1.512.689,6.765,6.765,0,0,1-1.819.239,6.031,6.031,0,0,1-2.376-.449,4.249,4.249,0,0,1-1.718-1.288,4.546,4.546,0,0,1-.76-1.5,6.255,6.255,0,0,1-.266-1.842,6.429,6.429,0,0,1,.479-2.492,5,5,0,0,1,1.348-1.9,5.159,5.159,0,0,1,1.639-.936,5.817,5.817,0,0,1,1.961-.329,5.18,5.18,0,0,1,1.112.113,5.8,5.8,0,0,1,1.089.366l.442.2a.8.8,0,0,0,.3.067q.3,0,.457-.487Z" transform="translate(-109.334 -4.883)" fill="#414042"/>
      <path id="Path_173" data-name="Path 173" d="M212.56,9.979v6.512a5.439,5.439,0,0,0,.086,1.138,1.259,1.259,0,0,0,.793.921,2.416,2.416,0,0,0,.692.12v.172h-3.45v-.172a2.418,2.418,0,0,0,.692-.12,1.257,1.257,0,0,0,.793-.924,5.445,5.445,0,0,0,.086-1.134V10.967a5.393,5.393,0,0,0-.086-1.126,1.265,1.265,0,0,0-.318-.61,1.194,1.194,0,0,0-.468-.314,2.461,2.461,0,0,0-.7-.12V8.624h2.882l6.078,7.755v-5.4a5.436,5.436,0,0,0-.086-1.138,1.268,1.268,0,0,0-.318-.606,1.255,1.255,0,0,0-.476-.314,2.43,2.43,0,0,0-.692-.12V8.624h3.451V8.8a1.547,1.547,0,0,0-1.168.434,1.262,1.262,0,0,0-.318.61,5.394,5.394,0,0,0-.086,1.126v7.875h-.337Z" transform="translate(-129.495 -5.301)" fill="#414042"/>
      <path id="Path_174" data-name="Path 174" d="M254.145,18.841h-4.918v-.172a2.257,2.257,0,0,0,.928-.225.909.909,0,0,0,.464-.808,2.357,2.357,0,0,0-.21-.823l-.127-.314-.719-1.766h-3.294l-.389,1.033-.187.464a3.706,3.706,0,0,0-.337,1.3,1.108,1.108,0,0,0,.123.516,1.076,1.076,0,0,0,.333.389,1.51,1.51,0,0,0,.748.24v.172h-3.353v-.172a1.553,1.553,0,0,0,.7-.195,2.005,2.005,0,0,0,.584-.554,4.225,4.225,0,0,0,.468-.79q.228-.483.6-1.449L248.3,8.624h.427l3.256,7.867a12.4,12.4,0,0,0,.584,1.272,1.885,1.885,0,0,0,.472.576,1.33,1.33,0,0,0,.412.206,4.149,4.149,0,0,0,.7.124Zm-4.7-4.416-1.572-3.877-1.482,3.877Z" transform="translate(-149.488 -5.301)" fill="#414042"/>
      <path id="Path_175" data-name="Path 175" d="M279.5,8.856q-.472,0-1.01.03a5.551,5.551,0,0,0-1.718.292,2.01,2.01,0,0,0-.932.8,4.154,4.154,0,0,0-.516,1.422l-.172-.015.135-2.762h10.127l.135,2.762-.172.015a3.606,3.606,0,0,0-.633-1.576,2.379,2.379,0,0,0-1.254-.767,9.53,9.53,0,0,0-2.358-.2v7.635a5.448,5.448,0,0,0,.086,1.134,1.273,1.273,0,0,0,.318.61,1.259,1.259,0,0,0,.475.314,2.438,2.438,0,0,0,.693.119v.173h-4.783v-.173a2.464,2.464,0,0,0,.7-.119,1.261,1.261,0,0,0,.793-.921,5.47,5.47,0,0,0,.086-1.138Z" transform="translate(-169.123 -5.301)" fill="#414042"/>
      <path id="Path_176" data-name="Path 176" d="M311.592,8.624V8.8a2.482,2.482,0,0,0-.7.12,1.186,1.186,0,0,0-.471.314,1.25,1.25,0,0,0-.326.629,7.171,7.171,0,0,0-.079,1.287v4.237a9.941,9.941,0,0,0,.079,1.493,2.371,2.371,0,0,0,.318.85,2.208,2.208,0,0,0,.887.857,2.947,2.947,0,0,0,1.329.266,4.667,4.667,0,0,0,1.486-.236,3.338,3.338,0,0,0,1.179-.655,1.72,1.72,0,0,0,.43-.569,2.468,2.468,0,0,0,.183-.778q.031-.307.03-1.452V10.975a5.48,5.48,0,0,0-.086-1.138,1.272,1.272,0,0,0-.319-.606,1.25,1.25,0,0,0-.475-.314,2.432,2.432,0,0,0-.692-.12V8.624h3.45V8.8a2.442,2.442,0,0,0-.692.12,1.249,1.249,0,0,0-.475.314,1.263,1.263,0,0,0-.318.61,5.454,5.454,0,0,0-.086,1.134V15.7a5.425,5.425,0,0,1-.161,1.546,2.033,2.033,0,0,1-.64.909,5.773,5.773,0,0,1-6.243.052,2.338,2.338,0,0,1-.779-1.5,10.484,10.484,0,0,1-.045-1.19V10.975a5.67,5.67,0,0,0-.082-1.138,1.21,1.21,0,0,0-.322-.606,1.191,1.191,0,0,0-.468-.314,2.458,2.458,0,0,0-.7-.12V8.624Z" transform="translate(-188.579 -5.301)" fill="#414042"/>
      <path id="Path_177" data-name="Path 177" d="M344.063,13.841v2.65a5.449,5.449,0,0,0,.086,1.134,1.254,1.254,0,0,0,.786.921,2.355,2.355,0,0,0,.7.123v.172h-4.783v-.172a2.35,2.35,0,0,0,.7-.123,1.273,1.273,0,0,0,.468-.311,1.212,1.212,0,0,0,.322-.607,5.66,5.66,0,0,0,.082-1.138V10.975a5.667,5.667,0,0,0-.082-1.138,1.21,1.21,0,0,0-.322-.606,1.186,1.186,0,0,0-.472-.314,2.479,2.479,0,0,0-.7-.12V8.624h3.608q.906,0,1.19.008a5.791,5.791,0,0,1,1.819.314,2.474,2.474,0,0,1,1.149.894,2.382,2.382,0,0,1,.408,1.381,2.272,2.272,0,0,1-.883,1.871,2.548,2.548,0,0,1-.6.344,5.344,5.344,0,0,1-.872.255,2.274,2.274,0,0,1,.666.389,1.752,1.752,0,0,1,.314.393q.142.236.427.834.666,1.37,1.007,2a6.21,6.21,0,0,0,.573.917,1.194,1.194,0,0,0,.363.322,1.375,1.375,0,0,0,.483.119v.172h-2.486q-.187-.412-.24-.524l-.524-1.19a19.087,19.087,0,0,0-.951-1.894,3.9,3.9,0,0,0-.876-1.115A1.315,1.315,0,0,0,345,13.9a2.186,2.186,0,0,0-.569-.064Zm0-.165h.284a5.858,5.858,0,0,0,1.329-.1,1.752,1.752,0,0,0,.752-.434,2.46,2.46,0,0,0,.786-1.857,2.744,2.744,0,0,0-.228-1.112,2.3,2.3,0,0,0-.633-.857,1.831,1.831,0,0,0-.748-.355,5.768,5.768,0,0,0-1.235-.1h-.307Z" transform="translate(-209.504 -5.301)" fill="#414042"/>
      <path id="Path_178" data-name="Path 178" d="M378.475,8.624l.127,2.47-.172.008a3.2,3.2,0,0,0-.322-1.041,2.231,2.231,0,0,0-.651-.726,2.178,2.178,0,0,0-.831-.371,5.977,5.977,0,0,0-1.272-.108h-1.714v4.491h.449a4.366,4.366,0,0,0,1.025-.09,1.144,1.144,0,0,0,.561-.322,1.361,1.361,0,0,0,.311-.513,4.479,4.479,0,0,0,.169-.872l.172.008-.03,4.012h-.173a4.1,4.1,0,0,0-.2-.928,1.761,1.761,0,0,0-.363-.6,1.324,1.324,0,0,0-.584-.352,3.133,3.133,0,0,0-.913-.112h-.427v1.714q0,1.025.052,1.493a2.477,2.477,0,0,0,.2.782,1.613,1.613,0,0,0,.775.79,3.185,3.185,0,0,0,1.374.251,4.3,4.3,0,0,0,1.5-.229,2.245,2.245,0,0,0,.988-.708,2.757,2.757,0,0,0,.438-.733,6.491,6.491,0,0,0,.311-1.086l.172.008-.1,2.979h-8.93v-.172a2.424,2.424,0,0,0,.692-.12,1.256,1.256,0,0,0,.475-.314,1.272,1.272,0,0,0,.318-.61A5.473,5.473,0,0,0,372,16.491V10.975a5.475,5.475,0,0,0-.086-1.134,1.272,1.272,0,0,0-.318-.61,1.189,1.189,0,0,0-.468-.314,2.456,2.456,0,0,0-.7-.12V8.624Z" transform="translate(-227.683 -5.301)" fill="#414042"/>
      <path id="Path_179" data-name="Path 179" d="M422.731,8.206l.089,3.256-.172.015A5.994,5.994,0,0,0,421.323,9a2.656,2.656,0,0,0-1.954-.812,3.053,3.053,0,0,0-1.531.363,3.7,3.7,0,0,0-1.194,1.179,6.681,6.681,0,0,0-1.123,3.817,6.783,6.783,0,0,0,.269,1.935,5.1,5.1,0,0,0,.786,1.605,2.97,2.97,0,0,0,2.448,1.348,2.449,2.449,0,0,0,1.07-.24,2.168,2.168,0,0,0,1.265-2.044,1.308,1.308,0,0,0-.4-1.07,2.088,2.088,0,0,0-1.321-.329v-.172h4.775v.172a3.086,3.086,0,0,0-.924.183.781.781,0,0,0-.393.423,3.9,3.9,0,0,0-.142,1.31q0,.27.03.839l.015.172a1.382,1.382,0,0,0-.419-.1.816.816,0,0,0-.419.172,5.018,5.018,0,0,1-1.512.689,6.764,6.764,0,0,1-1.819.239,6.034,6.034,0,0,1-2.377-.449,4.246,4.246,0,0,1-1.718-1.288,4.533,4.533,0,0,1-.76-1.5,6.256,6.256,0,0,1-.266-1.842,6.429,6.429,0,0,1,.479-2.492,4.986,4.986,0,0,1,1.347-1.9,5.154,5.154,0,0,1,1.639-.936,5.817,5.817,0,0,1,1.961-.329,5.177,5.177,0,0,1,1.112.113,5.8,5.8,0,0,1,1.089.366l.442.2a.8.8,0,0,0,.3.067q.3,0,.457-.487Z" transform="translate(-254.287 -4.883)" fill="#414042"/>
      <path id="Path_180" data-name="Path 180" d="M446.51,18.842v-.18a1.547,1.547,0,0,0,1.168-.427,1.276,1.276,0,0,0,.318-.61,5.472,5.472,0,0,0,.086-1.134V10.975a5.31,5.31,0,0,0-.094-1.171,1.234,1.234,0,0,0-.348-.618,1.329,1.329,0,0,0-.468-.284,2.322,2.322,0,0,0-.662-.1V8.624h4.783V8.8a2.541,2.541,0,0,0-.674.113,1.239,1.239,0,0,0-.464.284,1.257,1.257,0,0,0-.344.621,5.445,5.445,0,0,0-.089,1.16v4.319q0,1,.052,1.482a2.418,2.418,0,0,0,.2.793,1.649,1.649,0,0,0,.779.79,3.157,3.157,0,0,0,1.369.251,4.184,4.184,0,0,0,1.5-.236,2.3,2.3,0,0,0,1-.73,3.068,3.068,0,0,0,.431-.763,7.046,7.046,0,0,0,.311-1.123l.18.015-.1,3.069Z" transform="translate(-274.446 -5.301)" fill="#414042"/>
      <path id="Path_181" data-name="Path 181" d="M475.5,13.382a5.135,5.135,0,0,1,.539-2.333,5.473,5.473,0,0,1,1.572-1.876,6.079,6.079,0,0,1,1.662-.91,5.313,5.313,0,0,1,1.8-.318,5.2,5.2,0,0,1,2.231.506,5.734,5.734,0,0,1,1.886,1.427,5.019,5.019,0,0,1,1.318,3.408,5.088,5.088,0,0,1-.345,1.85,5.253,5.253,0,0,1-1,1.625,5.636,5.636,0,0,1-1.912,1.415,5.562,5.562,0,0,1-4.585.015,5.432,5.432,0,0,1-1.871-1.378,4.982,4.982,0,0,1-.955-1.584,5.207,5.207,0,0,1-.333-1.847m1.811.113a5.706,5.706,0,0,0,1.183,3.663,3.506,3.506,0,0,0,1.126.97,2.979,2.979,0,0,0,1.374.3,3.029,3.029,0,0,0,1.381-.3,3.508,3.508,0,0,0,1.134-.974,5.774,5.774,0,0,0,1.182-3.693,7.832,7.832,0,0,0-.325-2.281,5.473,5.473,0,0,0-.917-1.824,3.015,3.015,0,0,0-1.067-.9,3.558,3.558,0,0,0-2.762,0,3.1,3.1,0,0,0-1.074.9,5.33,5.33,0,0,0-.913,1.82,8.058,8.058,0,0,0-.322,2.315" transform="translate(-292.267 -4.883)" fill="#414042"/>
      <path id="Path_182" data-name="Path 182" d="M510.674,18.842v-.172a2.35,2.35,0,0,0,.7-.123,1.269,1.269,0,0,0,.468-.311,1.212,1.212,0,0,0,.322-.607,5.66,5.66,0,0,0,.082-1.138V10.975a5.667,5.667,0,0,0-.082-1.138,1.212,1.212,0,0,0-.322-.606,1.194,1.194,0,0,0-.472-.314,2.479,2.479,0,0,0-.7-.12V8.624h4.918q.749,0,.98.015a3.226,3.226,0,0,1,1.415.4,2.087,2.087,0,0,1,.752.786A2.245,2.245,0,0,1,519,10.922a2.223,2.223,0,0,1-.606,1.609,2,2,0,0,1-.494.385,5.627,5.627,0,0,1-.8.341,6.785,6.785,0,0,1,1.115.262,2.527,2.527,0,0,1,.719.4,2.657,2.657,0,0,1,.745.969,2.972,2.972,0,0,1,.266,1.254,2.824,2.824,0,0,1-.273,1.246,2.334,2.334,0,0,1-.76.909,2.746,2.746,0,0,1-1.052.427,9.455,9.455,0,0,1-1.718.12Zm3.211-9.985V13.3h.606a6.83,6.83,0,0,0,.883-.06,3.883,3.883,0,0,0,.64-.142,1.753,1.753,0,0,0,.445-.225,1.877,1.877,0,0,0,.588-.73,2.319,2.319,0,0,0,.206-.985,2.785,2.785,0,0,0-.213-1.081,1.98,1.98,0,0,0-.565-.8,1.711,1.711,0,0,0-.7-.337,5.794,5.794,0,0,0-1.193-.09Zm0,4.678v3.084a4.185,4.185,0,0,0,.079.906,1.523,1.523,0,0,0,.258.584,1.546,1.546,0,0,0,1.31.5,2.667,2.667,0,0,0,1.905-.659,2.347,2.347,0,0,0,.7-1.8,3.305,3.305,0,0,0-.217-1.208,2.027,2.027,0,0,0-.584-.857,3.3,3.3,0,0,0-2.111-.554Z" transform="translate(-313.885 -5.301)" fill="#414042"/>
      <path id="Path_183" data-name="Path 183" d="M550.854,18.841h-4.917v-.172a2.261,2.261,0,0,0,.928-.225.909.909,0,0,0,.464-.808,2.356,2.356,0,0,0-.21-.823l-.127-.314-.719-1.766H542.98l-.389,1.033-.187.464a3.707,3.707,0,0,0-.337,1.3,1.108,1.108,0,0,0,.123.516,1.079,1.079,0,0,0,.333.389,1.51,1.51,0,0,0,.748.24v.172h-3.353v-.172a1.554,1.554,0,0,0,.7-.195,2.011,2.011,0,0,0,.584-.554,4.21,4.21,0,0,0,.468-.79q.228-.483.6-1.449l2.739-7.058h.427l3.256,7.867a12.38,12.38,0,0,0,.584,1.272,1.883,1.883,0,0,0,.471.576,1.323,1.323,0,0,0,.412.206,4.136,4.136,0,0,0,.7.124Zm-4.7-4.416-1.572-3.877L543.1,14.425Z" transform="translate(-331.859 -5.301)" fill="#414042"/>
      <path id="Path_184" data-name="Path 184" d="M572.662,18.842v-.18a1.548,1.548,0,0,0,1.168-.427,1.273,1.273,0,0,0,.318-.61,5.448,5.448,0,0,0,.086-1.134V10.975A5.317,5.317,0,0,0,574.14,9.8a1.234,1.234,0,0,0-.348-.618,1.331,1.331,0,0,0-.468-.284,2.324,2.324,0,0,0-.662-.1V8.624h4.783V8.8a2.535,2.535,0,0,0-.674.113,1.239,1.239,0,0,0-.464.284,1.257,1.257,0,0,0-.344.621,5.445,5.445,0,0,0-.089,1.16v4.319q0,1,.052,1.482a2.417,2.417,0,0,0,.2.793,1.651,1.651,0,0,0,.779.79,3.158,3.158,0,0,0,1.37.251,4.184,4.184,0,0,0,1.5-.236,2.3,2.3,0,0,0,1-.73,3.079,3.079,0,0,0,.43-.763,6.963,6.963,0,0,0,.311-1.123l.18.015-.1,3.069Z" transform="translate(-351.985 -5.301)" fill="#414042"/>
      <path id="Path_185" data-name="Path 185" d="M596.334,0V.638h-.875V3.324h-.782V.638h-.9V0Z" transform="translate(-364.964 0)" fill="#414042"/>
      <path id="Path_186" data-name="Path 186" d="M604.27,0h.989V3.324h-.712V1.049l-.737,1.81h-.677l-.742-1.81V3.324h-.713V0h.99l.8,1.968Z" transform="translate(-369.82 0)" fill="#414042"/>
    </g>
  </g>
</svg>
