<svg xmlns="http://www.w3.org/2000/svg" xmlns:xlink="http://www.w3.org/1999/xlink" width="131.458" height="64.117" viewBox="0 0 131.458 64.117">
  <defs>
    <clipPath id="clip-path">
      <rect id="Rectangle_3" data-name="Rectangle 3" width="131.458" height="64.117" fill="#fff"/>
    </clipPath>
    <clipPath id="clip-path-2">
      <path id="Path_11" data-name="Path 11" d="M72.59,65.415a2.057,2.057,0,0,1,1.351.381,1.486,1.486,0,0,1,0,2.138,2.057,2.057,0,0,1-1.351.38H71v-2.9ZM69.65,64.268v7.3H71V69.461h1.648a3.953,3.953,0,0,0,1.663-.318,2.456,2.456,0,0,0,1.069-.9,2.487,2.487,0,0,0,.376-1.382,2.537,2.537,0,0,0-.376-1.4,2.37,2.37,0,0,0-1.069-.891,4.085,4.085,0,0,0-1.663-.308Zm11.868,1.147a2.058,2.058,0,0,1,1.35.381,1.317,1.317,0,0,1,.453,1.068,1.334,1.334,0,0,1-.453,1.075,2.043,2.043,0,0,1-1.35.386H79.931v-2.91Zm-2.941-1.147v7.3h1.355V69.441h1.648c.1,0,.192,0,.286-.007l1.487,2.134h1.46l-1.677-2.394c.036-.015.072-.03.108-.047a2.432,2.432,0,0,0,1.07-.887,2.46,2.46,0,0,0,.375-1.376,2.536,2.536,0,0,0-.375-1.4,2.372,2.372,0,0,0-1.07-.891,4.085,4.085,0,0,0-1.663-.308Zm-16.116.193a2.186,2.186,0,0,0-.97.791,1.982,1.982,0,0,0-.318,1.09,1.665,1.665,0,0,0,.854,1.559,4.1,4.1,0,0,0,.85.37c.309.1.618.18.928.246s.591.139.845.219a1.773,1.773,0,0,1,.62.323.669.669,0,0,1,.239.536.765.765,0,0,1-.166.485,1.121,1.121,0,0,1-.522.34,2.855,2.855,0,0,1-.928.125,3.942,3.942,0,0,1-1.324-.229,3.8,3.8,0,0,1-1.084-.574L61.015,70.8a3.68,3.68,0,0,0,1.247.631,5.394,5.394,0,0,0,1.631.245,4.043,4.043,0,0,0,1.659-.3,2.185,2.185,0,0,0,.975-.792,1.961,1.961,0,0,0,.318-1.08,1.744,1.744,0,0,0-.234-.943,1.781,1.781,0,0,0-.621-.594,3.968,3.968,0,0,0-.845-.365c-.305-.094-.614-.176-.927-.245s-.6-.142-.85-.22a1.652,1.652,0,0,1-.615-.318.678.678,0,0,1-.235-.536.833.833,0,0,1,.161-.5,1.1,1.1,0,0,1,.516-.358,2.563,2.563,0,0,1,.908-.136,3.844,3.844,0,0,1,1,.14,3.975,3.975,0,0,1,1.011.433l.428-1.054a3.766,3.766,0,0,0-1.126-.479,5.2,5.2,0,0,0-1.3-.167,3.985,3.985,0,0,0-1.652.3" transform="translate(-61.015 -64.164)" fill="#fff"/>
    </clipPath>
    <clipPath id="clip-path-4">
      <path id="Path_13" data-name="Path 13" d="M65.452,3.887A4.483,4.483,0,0,0,63.88,9.92a4.439,4.439,0,0,0,5.384,2.3L68.2,11.162l-.244,0a4.528,4.528,0,0,1-.712-.048A3.492,3.492,0,0,1,64.926,9.3,3.313,3.313,0,0,1,64.8,6.507a3.429,3.429,0,0,1,3.4-2.124,3.33,3.33,0,0,1,3.063,2.483,4.483,4.483,0,0,1,.068.8c0,.086,0,.167,0,.221L72.457,9a4.572,4.572,0,0,0-1.6-4.843,4.9,4.9,0,0,0-1.468-.81,4.361,4.361,0,0,0-3.932.538" transform="translate(-63.312 -3.104)" fill="#fff"/>
    </clipPath>
    <clipPath id="clip-path-5">
      <path id="Path_14" data-name="Path 14" d="M78.563,15.078l1.079,1.068c.054.006.133,0,.223.01a4.114,4.114,0,0,1,.61.043,3.349,3.349,0,0,1,2.714,3.5,3.3,3.3,0,0,1-2.949,3.222A3.452,3.452,0,0,1,76.389,19.9c-.013-.085-.011-.273-.013-.446,0-.055,0-.11,0-.16L75.32,18.246a4.666,4.666,0,0,0,.569,3.81,4.564,4.564,0,0,0,3.6,2.121,4.624,4.624,0,0,0,3.686-1.462,4.765,4.765,0,0,0,1.237-3.876,4.631,4.631,0,0,0-2.39-3.373,4.512,4.512,0,0,0-2.194-.589,4.025,4.025,0,0,0-1.262.2" transform="translate(-75.142 -14.877)" fill="#fff"/>
    </clipPath>
    <clipPath id="clip-path-6">
      <path id="Path_15" data-name="Path 15" d="M65.939,15.415a4.71,4.71,0,0,0-2.452,3.061,4.589,4.589,0,0,0,.6,3.574,4.655,4.655,0,0,0,3.032,2.087,4.661,4.661,0,0,0,5.363-5.817l-1.1,1.11c0,.055,0,.136.005.217a4.411,4.411,0,0,1-.017.5,3.277,3.277,0,0,1-2.821,2.8,3.457,3.457,0,0,1-3.667-2.022,3.259,3.259,0,0,1,.036-2.8,3.488,3.488,0,0,1,2.347-1.879,4.039,4.039,0,0,1,.709-.05c.1,0,.185,0,.242-.009l1.062-1.063a4.51,4.51,0,0,0-3.337.3" transform="translate(-63.353 -14.924)" fill="#fff"/>
    </clipPath>
    <clipPath id="clip-path-7">
      <path id="Path_16" data-name="Path 16" d="M79.535,3.106A4.668,4.668,0,0,0,75.3,9.057l1.06-1.07a2.642,2.642,0,0,0,.02-.293,4.807,4.807,0,0,1,.1-.9,3.384,3.384,0,0,1,3.651-2.431,3.347,3.347,0,0,1,3.023,3.113,3.372,3.372,0,0,1-2.5,3.589,3.915,3.915,0,0,1-.8.068c-.086,0-.165,0-.222,0l-1.1,1.116a4.686,4.686,0,0,0,5.862-5.022,4.714,4.714,0,0,0-4.6-4.13c-.081,0-.163,0-.245.007" transform="translate(-75.11 -3.099)" fill="#fff"/>
    </clipPath>
    <clipPath id="clip-path-8">
      <path id="Path_17" data-name="Path 17" d="M61.495,12.6A11.325,11.325,0,1,1,72.82,23.924,11.339,11.339,0,0,1,61.495,12.6M72.82,0a12.6,12.6,0,1,0,12.6,12.6A12.613,12.613,0,0,0,72.82,0Z" transform="translate(-60.221)" fill="#fff"/>
    </clipPath>
  </defs>
  <g id="Group_19" data-name="Group 19" transform="translate(0 0)">
    <g id="Group_2" data-name="Group 2" transform="translate(0 0)">
      <g id="Group_1" data-name="Group 1" clip-path="url(#clip-path)">
        <path id="Path_1" data-name="Path 1" d="M2.937,53.6A5.433,5.433,0,0,1,.783,51.567a5.927,5.927,0,0,1,0-5.89,5.441,5.441,0,0,1,2.154-2.029,6.49,6.49,0,0,1,3.094-.728,6.644,6.644,0,0,1,2.709.532,5.223,5.223,0,0,1,2.005,1.536L8.772,46.774a3.247,3.247,0,0,0-2.585-1.285,3.189,3.189,0,0,0-1.59.392,2.718,2.718,0,0,0-1.081,1.1,3.683,3.683,0,0,0,0,3.274,2.715,2.715,0,0,0,1.081,1.1,3.189,3.189,0,0,0,1.59.392A3.247,3.247,0,0,0,8.772,50.47l1.974,1.786A5.212,5.212,0,0,1,8.74,53.791a6.63,6.63,0,0,1-2.709.533A6.491,6.491,0,0,1,2.937,53.6" transform="translate(0 -5.054)" fill="#fff"/>
        <path id="Path_2" data-name="Path 2" d="M16.228,43.168h3.1v8.506h5.232v2.46H16.228Z" transform="translate(-1.911 -5.083)" fill="#fff"/>
        <path id="Path_3" data-name="Path 3" d="M31.68,53.587a5.606,5.606,0,0,1,0-9.932,7,7,0,0,1,6.25,0,5.607,5.607,0,0,1,0,9.932,7,7,0,0,1-6.25,0m4.628-2.224a2.823,2.823,0,0,0,1.066-1.1,3.624,3.624,0,0,0,0-3.274,2.829,2.829,0,0,0-1.066-1.1,3.088,3.088,0,0,0-3.008,0,2.829,2.829,0,0,0-1.066,1.1,3.624,3.624,0,0,0,0,3.274,2.823,2.823,0,0,0,1.066,1.1,3.082,3.082,0,0,0,3.008,0" transform="translate(-3.38 -5.054)" fill="#fff"/>
        <path id="Path_4" data-name="Path 4" d="M57.377,43.168l-4.7,10.966H49.623L44.939,43.168h3.353l2.976,7.143,3.039-7.143Z" transform="translate(-5.291 -5.083)" fill="#fff"/>
        <path id="Path_5" data-name="Path 5" d="M71.054,51.737v2.4h-8.8V43.168h8.6v2.4H65.322v1.848h4.871v2.318H65.322v2.005Z" transform="translate(-7.33 -5.083)" fill="#fff"/>
        <path id="Path_6" data-name="Path 6" d="M81.461,51.219H79.769v2.913h-3.1V43.168H81.68a6.254,6.254,0,0,1,2.585.493A3.989,3.989,0,0,1,86,49.3a3.752,3.752,0,0,1-1.591,1.386l2.365,3.446H83.45Zm1.472-5.185a2.14,2.14,0,0,0-1.442-.423H79.769v3.211h1.723a2.173,2.173,0,0,0,1.442-.415,1.474,1.474,0,0,0,.485-1.183,1.5,1.5,0,0,0-.485-1.19" transform="translate(-9.027 -5.083)" fill="#fff"/>
        <path id="Path_7" data-name="Path 7" d="M92.292,43.168h5.186a7.275,7.275,0,0,1,3.2.673,5.083,5.083,0,0,1,2.162,1.912,5.854,5.854,0,0,1,0,5.8,5.081,5.081,0,0,1-2.162,1.911,7.263,7.263,0,0,1-3.2.674H92.292Zm5.06,8.49a3.175,3.175,0,0,0,2.264-.8,3.286,3.286,0,0,0,0-4.417,3.183,3.183,0,0,0-2.264-.8H95.393v6.015Z" transform="translate(-10.867 -5.083)" fill="#fff"/>
        <path id="Path_8" data-name="Path 8" d="M116.437,52H111.8l-.861,2.131h-3.165l4.839-10.966h3.055l4.857,10.966H117.3Zm-.909-2.287-1.41-3.509-1.41,3.509Z" transform="translate(-12.69 -5.083)" fill="#fff"/>
        <path id="Path_9" data-name="Path 9" d="M125.708,43.168h3.1v8.506h5.232v2.46h-8.334Z" transform="translate(-14.802 -5.083)" fill="#fff"/>
        <path id="Path_10" data-name="Path 10" d="M147.828,51.737v2.4h-8.8V43.168h8.6v2.4H142.1v1.848h4.87v2.318H142.1v2.005Z" transform="translate(-16.37 -5.083)" fill="#fff"/>
      </g>
    </g>
    <g id="Group_4" data-name="Group 4" transform="translate(53.831 56.609)">
      <g id="Group_3" data-name="Group 3" clip-path="url(#clip-path-2)">
        <rect id="Rectangle_4" data-name="Rectangle 4" width="23.797" height="7.508" transform="translate(0 0)" fill="#fff"/>
      </g>
    </g>
    <g id="Group_6" data-name="Group 6" transform="translate(0 0)">
      <g id="Group_5" data-name="Group 5" clip-path="url(#clip-path)">
        <path id="Path_12" data-name="Path 12" d="M63.894,71.672a5.372,5.372,0,0,1-1.632-.245,3.68,3.68,0,0,1-1.247-.631l.47-1.053a3.769,3.769,0,0,0,1.083.573,3.923,3.923,0,0,0,1.325.23,2.836,2.836,0,0,0,.928-.126,1.106,1.106,0,0,0,.521-.339.765.765,0,0,0,.167-.484.671.671,0,0,0-.24-.537,1.758,1.758,0,0,0-.62-.323q-.381-.119-.844-.219t-.929-.245a4.121,4.121,0,0,1-.85-.371,1.757,1.757,0,0,1-.62-.6,1.781,1.781,0,0,1-.235-.959,1.977,1.977,0,0,1,.318-1.09,2.187,2.187,0,0,1,.97-.792,3.986,3.986,0,0,1,1.652-.3,5.191,5.191,0,0,1,1.3.167,3.75,3.75,0,0,1,1.127.48l-.428,1.053a4.02,4.02,0,0,0-1.011-.433,3.853,3.853,0,0,0-1-.141,2.582,2.582,0,0,0-.907.136,1.1,1.1,0,0,0-.516.359.828.828,0,0,0-.162.5.677.677,0,0,0,.235.537,1.648,1.648,0,0,0,.616.318c.253.077.537.15.85.219s.622.152.928.246a4.031,4.031,0,0,1,.845.364,1.8,1.8,0,0,1,.62.595,1.736,1.736,0,0,1,.235.943,1.954,1.954,0,0,1-.318,1.08,2.181,2.181,0,0,1-.975.792,4.024,4.024,0,0,1-1.658.3m5.757-.1v-7.3h3a4.093,4.093,0,0,1,1.664.307,2.388,2.388,0,0,1,1.069.892,2.537,2.537,0,0,1,.375,1.4,2.486,2.486,0,0,1-.375,1.382,2.461,2.461,0,0,1-1.069.9,3.96,3.96,0,0,1-1.664.319H70.411l.595-.626v2.732Zm1.355-2.586-.595-.668H72.59a2.057,2.057,0,0,0,1.351-.381,1.485,1.485,0,0,0,0-2.137,2.057,2.057,0,0,0-1.351-.381H70.411l.595-.668Zm7.571,2.586v-7.3h3a4.09,4.09,0,0,1,1.664.307,2.388,2.388,0,0,1,1.069.892,2.536,2.536,0,0,1,.375,1.4,2.46,2.46,0,0,1-.375,1.376,2.434,2.434,0,0,1-1.069.887,4.015,4.015,0,0,1-1.664.313H79.338l.595-.605v2.732Zm1.356-2.586-.595-.657h2.18a2.041,2.041,0,0,0,1.35-.386,1.332,1.332,0,0,0,.453-1.075,1.315,1.315,0,0,0-.453-1.068,2.056,2.056,0,0,0-1.35-.381h-2.18l.595-.668Zm3.421,2.586-1.846-2.649h1.45l1.855,2.649Z" transform="translate(-7.184 -7.555)" fill="#fff"/>
      </g>
    </g>
    <g id="Group_8" data-name="Group 8" transform="translate(55.857 2.739)">
      <g id="Group_7" data-name="Group 7" clip-path="url(#clip-path-4)">
        <rect id="Rectangle_6" data-name="Rectangle 6" width="10.042" height="9.897" transform="translate(-0.398 0)" fill="#fff"/>
      </g>
    </g>
    <g id="Group_10" data-name="Group 10" transform="translate(66.295 13.125)">
      <g id="Group_9" data-name="Group 9" clip-path="url(#clip-path-5)">
        <rect id="Rectangle_7" data-name="Rectangle 7" width="9.638" height="9.39" transform="translate(-0.185 0)" fill="#fff"/>
      </g>
    </g>
    <g id="Group_12" data-name="Group 12" transform="translate(55.893 13.167)">
      <g id="Group_11" data-name="Group 11" clip-path="url(#clip-path-6)">
        <rect id="Rectangle_8" data-name="Rectangle 8" width="9.714" height="9.533" transform="translate(-0.171 0)" fill="#fff"/>
      </g>
    </g>
    <g id="Group_14" data-name="Group 14" transform="translate(66.267 2.734)">
      <g id="Group_13" data-name="Group 13" clip-path="url(#clip-path-7)">
        <rect id="Rectangle_9" data-name="Rectangle 9" width="9.631" height="9.527" transform="translate(-0.19 0)" fill="#fff"/>
      </g>
    </g>
    <g id="Group_16" data-name="Group 16" transform="translate(53.13 0)">
      <g id="Group_15" data-name="Group 15" clip-path="url(#clip-path-8)">
        <rect id="Rectangle_10" data-name="Rectangle 10" width="25.197" height="25.198" transform="translate(0 0)" fill="#fff"/>
      </g>
    </g>
    <g id="Group_18" data-name="Group 18" transform="translate(0 0)">
      <g id="Group_17" data-name="Group 17" clip-path="url(#clip-path)">
        <path id="Path_18" data-name="Path 18" d="M72.456,9,71.338,7.888c0-.055,0-.136,0-.221a4.306,4.306,0,0,0-.068-.8A3.332,3.332,0,0,0,68.2,4.382a3.429,3.429,0,0,0-3.4,2.124A3.314,3.314,0,0,0,64.926,9.3a3.489,3.489,0,0,0,2.319,1.811,4.41,4.41,0,0,0,.713.049c.092,0,.183,0,.243,0l1.063,1.062a4.439,4.439,0,0,1-5.384-2.3,4.481,4.481,0,0,1,1.571-6.033,4.368,4.368,0,0,1,3.933-.538,4.91,4.91,0,0,1,1.468.81A4.571,4.571,0,0,1,72.456,9" transform="translate(-7.455 -0.365)" fill="#fff"/>
        <path id="Path_19" data-name="Path 19" d="M83.171,22.715a4.618,4.618,0,0,1-3.686,1.462,4.567,4.567,0,0,1-3.6-2.121,4.667,4.667,0,0,1-.568-3.809L76.375,19.3c0,.049,0,.1,0,.16,0,.172,0,.361.012.445a3.453,3.453,0,0,0,3.851,3.023A3.3,3.3,0,0,0,83.188,19.7a3.351,3.351,0,0,0-2.713-3.5,4.262,4.262,0,0,0-.61-.043c-.09-.006-.171,0-.224-.01l-1.079-1.068a4.309,4.309,0,0,1,3.456.388,4.632,4.632,0,0,1,2.39,3.373,4.765,4.765,0,0,1-1.237,3.876" transform="translate(-8.848 -1.752)" fill="#fff"/>
        <path id="Path_20" data-name="Path 20" d="M71.567,22.543a4.6,4.6,0,0,1-4.447,1.592,4.664,4.664,0,0,1-3.032-2.087,4.589,4.589,0,0,1-.6-3.574,4.708,4.708,0,0,1,2.452-3.061,4.512,4.512,0,0,1,3.337-.3l-1.062,1.063c-.057,0-.143.005-.242.009a3.965,3.965,0,0,0-.71.05,3.485,3.485,0,0,0-2.346,1.878,3.256,3.256,0,0,0-.037,2.8,3.459,3.459,0,0,0,3.668,2.023,3.277,3.277,0,0,0,2.821-2.8,4.39,4.39,0,0,0,.017-.5c0-.08-.006-.161-.005-.216l1.1-1.11a4.6,4.6,0,0,1-.915,4.224" transform="translate(-7.46 -1.757)" fill="#fff"/>
        <path id="Path_21" data-name="Path 21" d="M82.594,11.424a4.666,4.666,0,0,1-4.074.827l1.1-1.116c.057,0,.136,0,.222,0a3.915,3.915,0,0,0,.8-.068,3.37,3.37,0,0,0,2.5-3.588,3.345,3.345,0,0,0-3.024-3.113,3.382,3.382,0,0,0-3.65,2.429,4.828,4.828,0,0,0-.1.9,2.657,2.657,0,0,1-.02.293L75.3,9.057a4.668,4.668,0,0,1,4.238-5.951,4.641,4.641,0,0,1,3.059,8.318" transform="translate(-8.844 -0.365)" fill="#fff"/>
        <path id="Path_22" data-name="Path 22" d="M72.82,25.2a12.6,12.6,0,1,1,12.6-12.6,12.613,12.613,0,0,1-12.6,12.6m0-23.923A11.325,11.325,0,1,0,84.145,12.6,11.338,11.338,0,0,0,72.82,1.274" transform="translate(-7.091 0)" fill="#fff"/>
      </g>
    </g>
  </g>
</svg>
